name Walk8.mot
datacolumns 19
datarows 30
range 2.28100000 2.31000000
endheader

                time	   L_ground_force_vx	   L_ground_force_vy	   L_ground_force_vz	   L_ground_force_px	   L_ground_force_py	   L_ground_force_pz	   R_ground_force_vx	   R_ground_force_vy	   R_ground_force_vz	   R_ground_force_px	   R_ground_force_py	   R_ground_force_pz	   L_ground_torque_x	   L_ground_torque_y	   L_ground_torque_z	   R_ground_torque_x	   R_ground_torque_y	   R_ground_torque_z	
          2.28100000	          0.00000000	          0.00000000	          0.00000000	          0.00000000	          0.00000000	          0.00000000	         49.33821329	        159.61771063	         10.88794808	          0.44555972	          0.00000000	          0.08425467	          0.00000000	          0.00000000	          0.00000000	          0.00000000	          0.12917073	          0.00000000	
          2.28200000	          0.00000000	          0.00000000	          0.00000000	          0.00000000	          0.00000000	          0.00000000	         47.54585166	        152.95742862	         10.45899348	          0.44628824	          0.00000000	          0.08430119	          0.00000000	          0.00000000	          0.00000000	          0.00000000	          0.09638017	          0.00000000	
          2.28300000	          0.00000000	          0.00000000	          0.00000000	          0.00000000	          0.00000000	          0.00000000	         45.80937162	        146.57094510	         10.01842633	          0.44689390	          0.00000000	          0.08439499	          0.00000000	          0.00000000	          0.00000000	          0.00000000	          0.05331686	          0.00000000	
          2.28400000	          0.00000000	          0.00000000	          0.00000000	          0.00000000	          0.00000000	          0.00000000	         44.11018942	        140.38713599	          9.55980730	          0.44729657	          0.00000000	          0.08442787	          0.00000000	          0.00000000	          0.00000000	          0.00000000	          0.01694424	          0.00000000	
          2.28500000	          0.00000000	          0.00000000	          0.00000000	          0.00000000	          0.00000000	          0.00000000	         42.43633127	        134.33602798	          9.07008062	          0.44748066	          0.00000000	          0.08438264	          0.00000000	          0.00000000	          0.00000000	          0.00000000	         -0.00403910	          0.00000000	
          2.28600000	          0.00000000	          0.00000000	          0.00000000	          0.00000000	          0.00000000	          0.00000000	         40.77968339	        128.36930491	          8.53253983	          0.44758592	          0.00000000	          0.08425209	          0.00000000	          0.00000000	          0.00000000	          0.00000000	         -0.00541305	          0.00000000	
          2.28700000	          0.00000000	          0.00000000	          0.00000000	          0.00000000	          0.00000000	          0.00000000	         39.13437732	        122.47380152	          7.93377357	          0.44781464	          0.00000000	          0.08405551	          0.00000000	          0.00000000	          0.00000000	          0.00000000	          0.01242493	          0.00000000	
          2.28800000	          0.00000000	          0.00000000	          0.00000000	          0.00000000	          0.00000000	          0.00000000	         37.49605542	        116.68008628	          7.28652330	          0.44826724	          0.00000000	          0.08393681	          0.00000000	          0.00000000	          0.00000000	          0.00000000	          0.03943211	          0.00000000	
          2.28900000	          0.00000000	          0.00000000	          0.00000000	          0.00000000	          0.00000000	          0.00000000	         35.86037421	        111.03283993	          6.64000864	          0.44891789	          0.00000000	          0.08412041	          0.00000000	          0.00000000	          0.00000000	          0.00000000	          0.05643636	          0.00000000	
          2.29000000	          0.00000000	          0.00000000	          0.00000000	          0.00000000	          0.00000000	          0.00000000	         34.22987253	        105.54465248	          6.04988184	          0.44968722	          0.00000000	          0.08469956	          0.00000000	          0.00000000	          0.00000000	          0.00000000	          0.04606415	          0.00000000	
          2.29100000	          0.00000000	          0.00000000	          0.00000000	          0.00000000	          0.00000000	          0.00000000	         32.62159536	        100.17910676	          5.53697317	          0.45048246	          0.00000000	          0.08549514	          0.00000000	          0.00000000	          0.00000000	          0.00000000	          0.00841165	          0.00000000	
          2.29200000	          0.00000000	          0.00000000	          0.00000000	          0.00000000	          0.00000000	          0.00000000	         31.05469981	         94.88072065	          5.08303886	          0.45119246	          0.00000000	          0.08622053	          0.00000000	          0.00000000	          0.00000000	          0.00000000	         -0.03914386	          0.00000000	
          2.29300000	          0.00000000	          0.00000000	          0.00000000	          0.00000000	          0.00000000	          0.00000000	         29.53624054	         89.61979934	          4.65747063	          0.45169117	          0.00000000	          0.08674947	          0.00000000	          0.00000000	          0.00000000	          0.00000000	         -0.07999716	          0.00000000	
          2.29400000	          0.00000000	          0.00000000	          0.00000000	          0.00000000	          0.00000000	          0.00000000	         28.07545978	         84.40138195	          4.23286638	          0.45194699	          0.00000000	          0.08709036	          0.00000000	          0.00000000	          0.00000000	          0.00000000	         -0.10508987	          0.00000000	
          2.29500000	          0.00000000	          0.00000000	          0.00000000	          0.00000000	          0.00000000	          0.00000000	         26.69299852	         79.23750204	          3.79165907	          0.45213703	          0.00000000	          0.08716995	          0.00000000	          0.00000000	          0.00000000	          0.00000000	         -0.10647625	          0.00000000	
          2.29600000	          0.00000000	          0.00000000	          0.00000000	          0.00000000	          0.00000000	          0.00000000	         25.39333553	         74.15142283	          3.33856400	          0.45252017	          0.00000000	          0.08684894	          0.00000000	          0.00000000	          0.00000000	          0.00000000	         -0.08126709	          0.00000000	
          2.29700000	          0.00000000	          0.00000000	          0.00000000	          0.00000000	          0.00000000	          0.00000000	         24.14951941	         69.22529541	          2.89707850	          0.45322000	          0.00000000	          0.08618984	          0.00000000	          0.00000000	          0.00000000	          0.00000000	         -0.03970031	          0.00000000	
          2.29800000	          0.00000000	          0.00000000	          0.00000000	          0.00000000	          0.00000000	          0.00000000	         22.93137261	         64.58445834	          2.48951112	          0.45418041	          0.00000000	          0.08551666	          0.00000000	          0.00000000	          0.00000000	          0.00000000	          0.00123299	          0.00000000	
          2.29900000	          0.00000000	          0.00000000	          0.00000000	          0.00000000	          0.00000000	          0.00000000	         21.72824371	         60.29655935	          2.12740853	          0.45517693	          0.00000000	          0.08512160	          0.00000000	          0.00000000	          0.00000000	          0.00000000	          0.03038164	          0.00000000	
          2.30000000	          0.00000000	          0.00000000	          0.00000000	          0.00000000	          0.00000000	          0.00000000	         20.54083019	         56.31956776	          1.81203211	          0.45592205	          0.00000000	          0.08509587	          0.00000000	          0.00000000	          0.00000000	          0.00000000	          0.04368890	          0.00000000	
          2.30100000	          0.00000000	          0.00000000	          0.00000000	          0.00000000	          0.00000000	          0.00000000	         19.37483631	         52.56017790	          1.53412177	          0.45634138	          0.00000000	          0.08539908	          0.00000000	          0.00000000	          0.00000000	          0.00000000	          0.04043844	          0.00000000	
          2.30200000	          0.00000000	          0.00000000	          0.00000000	          0.00000000	          0.00000000	          0.00000000	         18.24238715	         48.95336184	          1.27777301	          0.45663034	          0.00000000	          0.08585987	          0.00000000	          0.00000000	          0.00000000	          0.00000000	          0.02727147	          0.00000000	
          2.30300000	          0.00000000	          0.00000000	          0.00000000	          0.00000000	          0.00000000	          0.00000000	         17.14904370	         45.48536509	          1.02194862	          0.45701044	          0.00000000	          0.08625540	          0.00000000	          0.00000000	          0.00000000	          0.00000000	          0.01797717	          0.00000000	
          2.30400000	          0.00000000	          0.00000000	          0.00000000	          0.00000000	          0.00000000	          0.00000000	         16.08142229	         42.17045719	          0.73818316	          0.45757835	          0.00000000	          0.08650061	          0.00000000	          0.00000000	          0.00000000	          0.00000000	          0.02022917	          0.00000000	
          2.30500000	          0.00000000	          0.00000000	          0.00000000	          0.00000000	          0.00000000	          0.00000000	         15.01975296	         39.02425814	          0.41033146	          0.45834859	          0.00000000	          0.08660309	          0.00000000	          0.00000000	          0.00000000	          0.00000000	          0.02747814	          0.00000000	
          2.30600000	          0.00000000	          0.00000000	          0.00000000	          0.00000000	          0.00000000	          0.00000000	         13.94920704	         36.04306232	          0.05998655	          0.45940995	          0.00000000	          0.08655531	          0.00000000	          0.00000000	          0.00000000	          0.00000000	          0.02880718	          0.00000000	
          2.30700000	          0.00000000	          0.00000000	          0.00000000	          0.00000000	          0.00000000	          0.00000000	         12.84368725	         33.16295562	         -0.27027387	          0.46102514	          0.00000000	          0.08638485	          0.00000000	          0.00000000	          0.00000000	          0.00000000	          0.02208913	          0.00000000	
          2.30800000	          0.00000000	          0.00000000	          0.00000000	          0.00000000	          0.00000000	          0.00000000	         11.65217708	         30.22564242	         -0.54660713	          0.46347539	          0.00000000	          0.08610970	          0.00000000	          0.00000000	          0.00000000	          0.00000000	          0.01318774	          0.00000000	
          2.30900000	          0.00000000	          0.00000000	          0.00000000	          0.00000000	          0.00000000	          0.00000000	         10.31036643	         26.98966976	         -0.73937629	          0.46684577	          0.00000000	          0.08556489	          0.00000000	          0.00000000	          0.00000000	          0.00000000	          0.00862564	          0.00000000	
          2.31000000	          0.00000000	          0.00000000	          0.00000000	          0.00000000	          0.00000000	          0.00000000	          8.75536088	         23.17127437	         -0.81770558	          0.47077310	          0.00000000	          0.08442814	          0.00000000	          0.00000000	          0.00000000	          0.00000000	          0.01295061	          0.00000000	
